<?xml version="1.0" encoding="utf-8"?>
<!-- Generator: Adobe Illustrator 19.0.0, SVG Export Plug-In . SVG Version: 6.00 Build 0)  -->
<svg version="1.1" id="Calque_1" xmlns="http://www.w3.org/2000/svg" xmlns:xlink="http://www.w3.org/1999/xlink" x="0px" y="0px"
	 viewBox="-125 208.9 178.4 178.4" style="enable-background:new -125 208.9 178.4 178.4;" xml:space="preserve">
<style type="text/css">
	.st0{fill:url(#XMLID_3_);}
	.st1{fill:#FFFFFF;}
</style>
<g>
	<g id="XMLID_88_">
		
			<linearGradient id="XMLID_3_" gradientUnits="userSpaceOnUse" x1="15.3228" y1="225.9491" x2="-86.9228" y2="371.9709" gradientTransform="matrix(1 0 0 -1 0 597.04)">
			<stop  offset="0" style="stop-color:#00AEBB"/>
			<stop  offset="1" style="stop-color:#00EAB5"/>
		</linearGradient>
		<path id="XMLID_23_" class="st0" d="M-35.8,387.3L-35.8,387.3c-49.1,0-89.2-40.1-89.2-89.2l0,0c0-49.1,40.1-89.2,89.2-89.2l0,0
			c49.1,0,89.2,40.1,89.2,89.2l0,0C53.4,347.2,13.3,387.3-35.8,387.3z"/>
		<g id="XMLID_2_">
			<path id="XMLID_20_" class="st1" d="M-48.3,244c-32.4,0-31.3,32.2-31.3,32.2v41.4c0,0-0.5,6.7,6.7,6.7s6.7-6.7,6.7-6.7v-41.2
				c0,0,0.3-17.4,17.8-17.4s17.8,17.4,17.8,17.4v41.4c0,0-0.5,6.7,6.7,6.7s6.7-6.7,6.7-6.7v-41.4C-17,276.3-15.8,244-48.3,244z"/>
			<path id="XMLID_11_" class="st1" d="M-23.3,352.2c-32.4,0-31.3-32.2-31.3-32.2v-41.4c0,0-0.5-6.7,6.7-6.7s6.7,6.7,6.7,6.7v41.3
				c0,0,0.3,17.4,17.8,17.4s17.8-17.4,17.8-17.4v-41.4c0,0-0.5-6.7,6.7-6.7s6.7,6.7,6.7,6.7v41.4C7.9,319.9,9.1,352.2-23.3,352.2z"
				/>
		</g>
	</g>
</g>
</svg>
